<svg width="20" height="15" viewBox="0 0 20 15" fill="none" xmlns="http://www.w3.org/2000/svg">
<g id="Albanian" clip-path="url(#clip0_2_4009)">
<path id="Flag Icon" d="M0 0H20V15H0V0Z" fill="#E41E20"/>
<path id="Flag Icon_2" d="M8.4999 2.91602C8.35615 2.91602 8.11553 2.96289 8.11865 3.07227C7.7124 3.00664 7.67178 3.17227 7.69678 3.32227C7.73428 3.26289 7.78115 3.22852 7.81865 3.22539C7.87178 3.21602 7.92803 3.23477 7.9874 3.26914C8.04341 3.30427 8.09395 3.34744 8.1374 3.39727C7.99365 3.43164 7.88115 3.40977 7.76865 3.39102C7.70508 3.37747 7.64464 3.35202 7.59053 3.31602C7.54365 3.28477 7.52803 3.25352 7.45615 3.18164C7.37178 3.09414 7.28115 3.11914 7.30928 3.25352C7.3749 3.37852 7.48428 3.43477 7.62178 3.45977C7.6874 3.46914 7.7874 3.49102 7.8999 3.49102C8.0124 3.49102 8.1374 3.47539 8.20615 3.49102C8.16553 3.51602 8.11865 3.56289 8.0249 3.57852C7.93115 3.59727 7.79053 3.52227 7.70303 3.50352C7.7124 3.57539 7.80615 3.64414 7.9874 3.68164C8.2874 3.74414 8.53428 3.79414 8.6999 3.88477C8.83088 3.9578 8.94654 4.05541 9.04053 4.17227C9.1874 4.34414 9.19678 4.47852 9.20303 4.50977C9.23428 4.78477 9.1374 4.94102 8.95615 4.99102C8.86865 5.01289 8.70615 4.96914 8.6499 4.90039C8.5874 4.83164 8.53428 4.71289 8.5499 4.52539C8.56553 4.45664 8.64678 4.26602 8.57803 4.22852C8.25218 4.04945 7.91501 3.89183 7.56865 3.75664C7.49053 3.72539 7.42803 3.83164 7.40303 3.87539C7.17228 3.84323 6.95159 3.76007 6.757 3.63196C6.5624 3.50385 6.39878 3.33401 6.27803 3.13477C6.14678 2.89727 5.9249 3.13477 5.9624 3.36289C6.02178 3.61289 6.2124 3.79414 6.44365 3.92539C6.67803 4.05352 6.9749 4.18164 7.27178 4.17539C7.43428 4.20664 7.43115 4.41289 7.24053 4.45352C6.8624 4.45352 6.55928 4.44727 6.2749 4.17227C6.05928 3.97539 5.94053 4.20977 5.9999 4.34102C6.10615 4.75039 6.69053 4.86602 7.28115 4.73477C7.5124 4.69727 7.3749 4.94102 7.3124 4.94414C7.0624 5.12227 6.62178 5.29414 6.23115 4.94414C6.05303 4.80664 5.93115 4.91914 5.9999 5.11602C6.17178 5.63164 6.83428 5.52227 7.2874 5.27227C7.40303 5.20664 7.50928 5.35664 7.36865 5.47227C6.80303 5.86602 6.52178 5.87227 6.26553 5.72227C5.94678 5.59414 5.92178 5.94727 6.10928 6.06602C6.31865 6.19102 6.85303 6.09727 7.24678 5.84727C7.41553 5.72227 7.42178 5.91914 7.31553 5.99727C6.8499 6.40039 6.66553 6.50664 6.18115 6.44102C5.94053 6.42227 5.94365 6.71914 6.13115 6.83477C6.39053 6.99414 6.89678 6.73164 7.2874 6.40352C7.45303 6.31602 7.48115 6.45977 7.3999 6.63164C7.22691 6.87641 6.99174 7.07059 6.71865 7.19414C6.4999 7.27852 6.29365 7.26602 6.14678 7.21602C5.96553 7.15352 5.94365 7.34102 6.04365 7.50977C6.10303 7.61289 6.3499 7.64414 6.61865 7.55039C6.8874 7.45664 7.1749 7.23164 7.37178 6.97227C7.54365 6.81914 7.5249 7.02227 7.44365 7.16602C7.0499 7.79102 6.6874 8.02227 6.20928 7.98477C5.9999 7.94727 5.9499 8.10977 6.08428 8.26602C6.32178 8.45977 6.61553 8.45352 6.87803 8.25977C7.10615 8.04102 7.54678 7.55977 7.77803 7.30352C7.94053 7.17539 7.99365 7.30352 7.94365 7.56602C7.8999 7.71602 7.79365 7.87852 7.49678 7.99102C7.29365 8.10664 7.44678 8.26602 7.59678 8.27227C7.68115 8.27227 7.8499 8.17227 7.98115 8.02852C8.1499 7.83477 8.1624 7.70664 8.25615 7.40664C8.34365 7.26289 8.50303 7.33164 8.50303 7.48164C8.4249 7.78164 8.3624 7.83477 8.20615 7.95664C8.05928 8.09727 8.30928 8.14414 8.39365 8.08477C8.6374 7.92227 8.7249 7.70977 8.80615 7.51602C8.86865 7.37852 9.0374 7.44414 8.95615 7.67227C8.76865 8.21602 8.45615 8.42852 7.91553 8.54102C7.8624 8.55039 7.82803 8.58164 7.84678 8.64414L8.06553 8.86289C7.73115 8.96289 7.45928 9.01914 7.12178 9.11289L6.65928 8.80664C6.61865 8.70664 6.59678 8.55039 6.35303 8.65977C6.19053 8.58477 6.1124 8.61289 6.02178 8.69102C6.15303 8.69102 6.20928 8.72852 6.2624 8.78789C6.33115 8.96602 6.4874 8.98477 6.64678 8.93477C6.7499 9.01914 6.80303 9.08789 6.90928 9.17539L6.3874 9.15977C6.1999 8.96289 6.05615 8.97227 5.9249 9.12852C5.82178 9.14414 5.78115 9.14414 5.7124 9.26602C5.81865 9.22227 5.8874 9.20977 5.93428 9.25664C6.13115 9.37227 6.25928 9.34727 6.35615 9.25664L6.90303 9.29102C6.83428 9.35352 6.74053 9.38477 6.66865 9.44102C6.3874 9.35977 6.2374 9.47227 6.1874 9.70039C6.1479 9.79183 6.13491 9.89254 6.1499 9.99102C6.1749 9.89727 6.22178 9.81914 6.30303 9.77227C6.55303 9.83477 6.64678 9.73164 6.6624 9.58164C6.7874 9.48164 6.96865 9.45977 7.09053 9.35977C7.23428 9.40352 7.30303 9.43164 7.44678 9.47852C7.49678 9.63477 7.6124 9.69414 7.7999 9.65352C8.01865 9.65977 7.98115 9.75352 7.9999 9.82539C8.0624 9.72227 8.05928 9.61914 7.92178 9.52539C7.87178 9.39102 7.75928 9.32852 7.61553 9.40664C7.47803 9.36914 7.44365 9.31289 7.30615 9.27227C7.6499 9.16289 7.89365 9.13789 8.2374 9.02852L8.47803 9.24102C8.5249 9.26914 8.56865 9.27539 8.59678 9.24102C8.8124 8.92852 8.90928 8.65664 9.10615 8.45039C9.18428 8.36289 9.28115 8.25039 9.3874 8.22227C9.44053 8.20664 9.50615 8.21602 9.5499 8.26289C9.59053 8.30664 9.6249 8.39102 9.6124 8.51914C9.59053 8.69727 9.54678 8.75664 9.49678 8.86289C9.44365 8.97227 9.38428 9.03789 9.31865 9.12227C9.19365 9.28789 9.0249 9.38477 8.9249 9.45039C8.7249 9.57852 8.64365 9.52227 8.4874 9.51289C8.2874 9.53477 8.2374 9.63164 8.3999 9.76602C8.5499 9.84727 8.6874 9.85664 8.7999 9.83477C8.89365 9.81602 9.00615 9.69414 9.0874 9.62852C9.1749 9.52539 9.3249 9.64727 9.22178 9.76914C9.0374 9.98789 8.85615 10.1316 8.62803 10.1285C8.3874 10.1598 8.43428 10.2941 8.59053 10.3598C8.87803 10.4754 9.13428 10.2566 9.26553 10.1098C9.36553 10.0004 9.4374 9.99727 9.42178 10.1691C9.31865 10.4785 9.18428 10.5973 8.95928 10.6129C8.77803 10.5941 8.7749 10.7379 8.90928 10.8316C9.20928 11.0379 9.42803 10.6816 9.53115 10.4691C9.60303 10.2754 9.71553 10.366 9.72803 10.5254C9.72803 10.741 9.63428 10.9129 9.3749 11.1316C9.57178 11.4473 9.80303 11.7691 9.9999 12.0848L10.5999 5.39727L9.9999 4.34414C9.9374 4.28789 9.7249 4.03789 9.67178 4.00039C9.6499 3.98164 9.64053 3.96914 9.66865 3.95664C9.69678 3.94414 9.7624 3.93164 9.80928 3.92539C9.68428 3.79727 9.57178 3.75664 9.33115 3.68789C9.39053 3.66289 9.44678 3.67539 9.62178 3.66914C9.5144 3.52486 9.36803 3.41427 9.1999 3.35039C9.33115 3.25664 9.35615 3.25039 9.4874 3.14102C9.28038 3.12502 9.0759 3.08518 8.87803 3.02227C8.75986 2.96611 8.63309 2.93019 8.50303 2.91602H8.4999ZM8.5249 3.17852C8.64365 3.17852 8.71553 3.21914 8.71553 3.26914C8.71553 3.31914 8.64365 3.35977 8.5249 3.35977C8.40615 3.35977 8.33115 3.31289 8.33115 3.26602C8.33115 3.21602 8.40615 3.17852 8.5249 3.17852Z" fill="black"/>
<path id="Flag Icon_3" d="M11.5001 2.91602C11.6438 2.91602 11.8845 2.96289 11.8813 3.07227C12.2876 3.00664 12.3282 3.17227 12.3032 3.32227C12.2657 3.26289 12.2188 3.22852 12.1813 3.22539C12.1282 3.21602 12.072 3.23477 12.0126 3.26914C11.9566 3.30427 11.9061 3.34744 11.8626 3.39727C12.0063 3.43164 12.1188 3.40977 12.2313 3.39102C12.2949 3.37747 12.3554 3.35202 12.4095 3.31602C12.4563 3.28477 12.472 3.25352 12.5438 3.18164C12.6282 3.09414 12.7188 3.11914 12.6907 3.25352C12.6251 3.37852 12.5157 3.43477 12.3782 3.45977C12.3126 3.46914 12.2126 3.49102 12.1001 3.49102C11.9876 3.49102 11.8626 3.47539 11.7938 3.49102C11.8345 3.51602 11.8813 3.56289 11.9751 3.57852C12.0688 3.59727 12.2095 3.52227 12.297 3.50352C12.2876 3.57539 12.1938 3.64414 12.0126 3.68164C11.7126 3.74414 11.4657 3.79414 11.3001 3.88477C11.1691 3.9578 11.0535 4.05541 10.9595 4.17227C10.8126 4.34414 10.8032 4.47852 10.797 4.50977C10.7657 4.78477 10.8626 4.94102 11.0438 4.99102C11.1313 5.01289 11.2938 4.96914 11.3501 4.90039C11.4126 4.83164 11.4657 4.71289 11.4501 4.52539C11.4345 4.45664 11.3532 4.26602 11.422 4.22852C11.7478 4.04945 12.085 3.89183 12.4313 3.75664C12.5095 3.72539 12.572 3.83164 12.597 3.87539C12.8277 3.84323 13.0484 3.76007 13.243 3.63196C13.4376 3.50385 13.6012 3.33401 13.722 3.13477C13.8532 2.89727 14.0751 3.13477 14.0376 3.36289C13.9782 3.61289 13.7876 3.79414 13.5563 3.92539C13.322 4.05352 13.0251 4.18164 12.7282 4.17539C12.5657 4.20664 12.5688 4.41289 12.7595 4.45352C13.1376 4.45352 13.4407 4.44727 13.7251 4.17227C13.9407 3.97539 14.0595 4.20977 14.0001 4.34102C13.8938 4.75039 13.3095 4.86602 12.7188 4.73477C12.4876 4.69727 12.6251 4.94102 12.6876 4.94414C12.9376 5.12227 13.3782 5.29414 13.7688 4.94414C13.947 4.80664 14.0688 4.91914 14.0001 5.11602C13.8282 5.63164 13.1657 5.52227 12.7126 5.27227C12.597 5.20664 12.4907 5.35664 12.6313 5.47227C13.197 5.86602 13.4782 5.87227 13.7345 5.72227C14.0532 5.59414 14.0782 5.94727 13.8907 6.06602C13.6813 6.19102 13.147 6.09727 12.7532 5.84727C12.5845 5.72227 12.5782 5.91914 12.6845 5.99727C13.1501 6.40039 13.3345 6.50664 13.8188 6.44102C14.0595 6.42227 14.0563 6.71914 13.8688 6.83477C13.6095 6.99414 13.1032 6.73164 12.7126 6.40352C12.547 6.31602 12.5188 6.45977 12.6001 6.63164C12.7731 6.87641 13.0083 7.07059 13.2813 7.19414C13.5001 7.27852 13.7063 7.26602 13.8532 7.21602C14.0345 7.15352 14.0563 7.34102 13.9563 7.50977C13.897 7.61289 13.6501 7.64414 13.3813 7.55039C13.1126 7.45664 12.8251 7.23164 12.6282 6.97227C12.4563 6.81914 12.4751 7.02227 12.5563 7.16602C12.9501 7.79102 13.3126 8.02227 13.7907 7.98477C14.0001 7.94727 14.0501 8.10977 13.9157 8.26602C13.6782 8.45977 13.3845 8.45352 13.122 8.25977C12.8938 8.04102 12.4532 7.55977 12.222 7.30352C12.0595 7.17539 12.0063 7.30352 12.0563 7.56602C12.1001 7.71602 12.2063 7.87852 12.5032 7.99102C12.7063 8.10664 12.5532 8.26602 12.4032 8.27227C12.3188 8.27227 12.1501 8.17227 12.0188 8.02852C11.8501 7.83477 11.8376 7.70664 11.7438 7.40664C11.6563 7.26289 11.497 7.33164 11.497 7.48164C11.5751 7.78164 11.6376 7.83477 11.7938 7.95664C11.9407 8.09727 11.6907 8.14414 11.6063 8.08477C11.3626 7.92227 11.2751 7.70977 11.1938 7.51602C11.1313 7.37852 10.9626 7.44414 11.0438 7.67227C11.2313 8.21602 11.5438 8.42852 12.0845 8.54102C12.1376 8.55039 12.172 8.58164 12.1532 8.64414L11.9345 8.86289C12.2688 8.96289 12.5407 9.01914 12.8782 9.11289L13.3407 8.80664C13.3813 8.70664 13.4032 8.55039 13.647 8.65977C13.8095 8.58477 13.8876 8.61289 13.9782 8.69102C13.847 8.69102 13.7907 8.72852 13.7376 8.78789C13.6688 8.96602 13.5126 8.98477 13.3532 8.93477C13.2501 9.01914 13.197 9.08789 13.0907 9.17539L13.6126 9.15977C13.8001 8.96289 13.9438 8.97227 14.0751 9.12852C14.1782 9.14414 14.2188 9.14414 14.2876 9.26602C14.1813 9.22227 14.1126 9.20977 14.0657 9.25664C13.8688 9.37227 13.7407 9.34727 13.6438 9.25664L13.097 9.29102C13.1657 9.35352 13.2595 9.38477 13.3313 9.44102C13.6126 9.35977 13.7626 9.47227 13.8126 9.70039C13.8521 9.79183 13.8651 9.89254 13.8501 9.99102C13.8251 9.89727 13.7782 9.81914 13.697 9.77227C13.447 9.83477 13.3532 9.73164 13.3376 9.58164C13.2126 9.48164 13.0313 9.45977 12.9095 9.35977C12.7657 9.40352 12.697 9.43164 12.5532 9.47852C12.5032 9.63477 12.3876 9.69414 12.2001 9.65352C11.9813 9.65977 12.0188 9.75352 12.0001 9.82539C11.9376 9.72227 11.9407 9.61914 12.0782 9.52539C12.1282 9.39102 12.2407 9.32852 12.3845 9.40664C12.522 9.36914 12.5563 9.31289 12.6938 9.27227C12.3501 9.16289 12.1063 9.13789 11.7626 9.02852L11.522 9.24102C11.4751 9.26914 11.4313 9.27539 11.4032 9.24102C11.1876 8.92852 11.0907 8.65664 10.8938 8.45039C10.8157 8.36289 10.7188 8.25039 10.6126 8.22227C10.5595 8.20664 10.4938 8.21602 10.4501 8.26289C10.4095 8.30664 10.3751 8.39102 10.3876 8.51914C10.4095 8.69727 10.4532 8.75664 10.5032 8.86289C10.5563 8.97227 10.6157 9.03789 10.6813 9.12227C10.8063 9.28789 10.9751 9.38477 11.0751 9.45039C11.2751 9.57852 11.3563 9.52227 11.5126 9.51289C11.7126 9.53477 11.7626 9.63164 11.6001 9.76602C11.4501 9.84727 11.3126 9.85664 11.2001 9.83477C11.1063 9.81602 10.9938 9.69414 10.9126 9.62852C10.8251 9.52539 10.6751 9.64727 10.7782 9.76914C10.9626 9.98789 11.1438 10.1316 11.372 10.1285C11.6126 10.1598 11.5657 10.2941 11.4095 10.3598C11.122 10.4754 10.8657 10.2566 10.7345 10.1098C10.6345 10.0004 10.5626 9.99727 10.5782 10.1691C10.6813 10.4785 10.8157 10.5973 11.0407 10.6129C11.222 10.5941 11.2251 10.7379 11.0907 10.8316C10.7907 11.0379 10.572 10.6816 10.4688 10.4691C10.397 10.2754 10.2845 10.366 10.272 10.5254C10.272 10.741 10.3657 10.9129 10.6251 11.1316C10.4282 11.4473 10.197 11.7691 10.0001 12.0848L9.4001 5.39727L10.0001 4.34414C10.0626 4.28789 10.2751 4.03789 10.3282 4.00039C10.3501 3.98164 10.3595 3.96914 10.3313 3.95664C10.3032 3.94414 10.2376 3.93164 10.1907 3.92539C10.3157 3.79727 10.4282 3.75664 10.6688 3.68789C10.6095 3.66289 10.5532 3.67539 10.3782 3.66914C10.4856 3.52486 10.632 3.41427 10.8001 3.35039C10.6688 3.25664 10.6438 3.25039 10.5126 3.14102C10.7196 3.12502 10.9241 3.08518 11.122 3.02227C11.2401 2.96611 11.3669 2.93019 11.497 2.91602H11.5001ZM11.4751 3.17852C11.3563 3.17852 11.2845 3.21914 11.2845 3.26914C11.2845 3.31914 11.3563 3.35977 11.4751 3.35977C11.5938 3.35977 11.6688 3.31289 11.6688 3.26602C11.6688 3.21602 11.5938 3.17852 11.4751 3.17852Z" fill="black"/>
</g>
<defs>
<clipPath id="clip0_2_4009">
<rect width="20" height="15" fill="white"/>
</clipPath>
</defs>
</svg>
