<svg width="205" height="32" viewBox="0 0 205 32" fill="none" xmlns="http://www.w3.org/2000/svg">
<g id="Logo">
<g id="Icon Group">
<path id="Icon" d="M31.9841 15.98V26.7L25.2475 14.54L22.309 9.31999L19.7103 4.6L9.61536 22.66L6.73682 17.48L16.332 0H23.0886L31.9841 15.98Z" fill="#0041F5"/>
<path id="Icon_2" d="M25.2473 14.5399L15.6321 31.9999H8.87552L0 16.0799V5.3999L6.7366 17.4799L9.61515 22.6599L12.2538 27.3999L22.3087 9.3199L25.2473 14.5399Z" fill="#0041F5"/>
</g>
<g id="Icon Group_2">
<path id="Icon_3" d="M56.0158 7.09538H46.355V12.0925H54.9961V14.8418H46.355V19.8908H56.275V22.6573H43.2441V4.31152H56.0331V7.07809L56.0158 7.09538Z" fill="#212427"/>
<path id="Icon_4" d="M60.561 9.34277L64.2767 13.8903L67.9752 9.34277H71.4662L66.005 15.948L71.5526 22.6742H68.027L64.2249 18.0056L60.4573 22.6742H56.9663L62.5139 15.9825L57.0527 9.36006H60.5783L60.561 9.34277Z" fill="#212427"/>
<path id="Icon_5" d="M80.5047 23.0028C78.5 23.0028 76.8582 22.1729 75.9595 20.6512V28H72.9351V9.34289H75.9595V11.3487C76.8582 9.82704 78.5 8.99707 80.5047 8.99707C84.2723 8.99707 87.0202 12.0749 87.0202 16C87.0202 19.925 84.2723 23.0201 80.5047 23.0201V23.0028ZM80.0381 11.608C77.6704 11.608 75.9595 13.3025 75.9595 15.9827C75.9595 18.6628 77.705 20.3746 80.0381 20.3746C82.3712 20.3746 84.134 18.4553 84.134 15.9827C84.134 13.51 82.4576 11.608 80.0381 11.608Z" fill="#212427"/>
<path id="Icon_6" d="M95.6266 8.99697C99.6188 8.9278 102.764 12.0748 102.695 15.9998C102.764 19.9249 99.6188 23.0892 95.6266 23.02C91.548 23.02 88.5581 20.0287 88.5581 15.9998C88.5581 11.971 91.548 8.99697 95.6266 8.99697ZM95.6266 11.6425C93.1552 11.6425 91.427 13.5445 91.427 15.9826C91.427 18.4206 93.1552 20.3572 95.6266 20.3572C98.098 20.3572 99.7916 18.4552 99.7916 15.9826C99.7916 13.5099 98.098 11.6425 95.6266 11.6425Z" fill="#212427"/>
<path id="Icon_7" d="M113.324 12.0575C112.979 11.9365 112.477 11.85 111.803 11.85C110.68 11.85 109.729 12.2304 109.004 12.9912C108.278 13.7348 107.932 14.6858 107.932 15.8616V22.6396H104.908V9.32553H107.932V11.6944C108.606 10.1036 110.058 9.06616 111.855 9.06616C112.477 9.06616 112.979 9.13533 113.324 9.27366V12.0402V12.0575Z" fill="#212427"/>
<path id="Icon_8" d="M124.972 22.1904C124.246 22.6919 122.967 23.0204 121.758 23.0204C118.491 23.0204 116.832 21.1703 116.832 17.5046V11.9887H113.911V9.36046H116.832V5.76392H119.857V9.36046H124.523V11.9887H119.857V17.4527C119.857 19.372 120.6 20.3576 122.103 20.3576C122.933 20.3576 123.659 20.1847 124.281 19.8043L124.972 22.2077V22.1904Z" fill="#212427"/>
<path id="Icon_9" d="M138.608 16.7957H135.359V22.6746H132.266V4.31152H138.608C143.482 4.31152 146.351 6.85331 146.351 10.5363C146.351 14.2193 143.482 16.7784 138.608 16.7784V16.7957ZM138.608 7.07809H135.359V14.0291H138.608C141.702 14.0291 143.274 12.7841 143.274 10.5536C143.274 8.32305 141.702 7.07809 138.608 7.07809Z" fill="#212427"/>
<path id="Icon_10" d="M154.422 8.99697C158.414 8.9278 161.559 12.0748 161.49 15.9998C161.559 19.9249 158.414 23.0892 154.422 23.02C150.343 23.02 147.353 20.0287 147.353 15.9998C147.353 11.971 150.343 8.99697 154.422 8.99697ZM154.422 11.6425C151.95 11.6425 150.222 13.5445 150.222 15.9826C150.222 18.4206 151.95 20.3572 154.422 20.3572C156.893 20.3572 158.587 18.4552 158.587 15.9826C158.587 13.5099 156.893 11.6425 154.422 11.6425Z" fill="#212427"/>
<path id="Icon_11" d="M172.119 12.0575C171.773 11.9365 171.272 11.85 170.598 11.85C169.474 11.85 168.524 12.2304 167.798 12.9912C167.072 13.7348 166.727 14.6858 166.727 15.8616V22.6396H163.702V9.32553H166.727V11.6944C167.401 10.1036 168.852 9.06616 170.65 9.06616C171.272 9.06616 171.773 9.13533 172.119 9.27366V12.0402V12.0575Z" fill="#212427"/>
<path id="Icon_12" d="M183.767 22.1904C183.041 22.6919 181.762 23.0204 180.552 23.0204C177.286 23.0204 175.627 21.1703 175.627 17.5046V11.9887H172.706V9.36046H175.627V5.76392H178.651V9.36046H183.318V11.9887H178.651V17.4527C178.651 19.372 179.395 20.3576 180.898 20.3576C181.728 20.3576 182.454 20.1847 183.076 19.8043L183.767 22.2077V22.1904Z" fill="#212427"/>
<path id="Icon_13" d="M198.82 9.34285V22.657H195.83V20.6339C194.931 22.1555 193.289 23.0028 191.285 23.0028C187.517 23.0028 184.769 19.9596 184.769 15.9826C184.769 12.0057 187.517 8.97974 191.285 8.97974C193.289 8.97974 194.931 9.827 195.83 11.3486V9.32556H198.82V9.34285ZM191.751 11.6253C189.297 11.6253 187.638 13.5273 187.638 15.9999C187.638 18.4725 189.315 20.3918 191.751 20.3918C194.188 20.3918 195.795 18.6627 195.795 15.9999C195.795 13.3371 194.119 11.6253 191.751 11.6253Z" fill="#212427"/>
<path id="Icon_14" d="M204.834 22.6571H201.81V4H204.834V22.6571Z" fill="#212427"/>
</g>
</g>
</svg>
