<?xml version="1.0" encoding="UTF-8"?>
<svg width="700pt" height="700pt" version="1.1" viewBox="0 0 700 700" xmlns="http://www.w3.org/2000/svg" xmlns:xlink="http://www.w3.org/1999/xlink">
 <defs>
  <symbol id="g" overflow="visible">
   <path d="m3.6562-0.21875c-0.1875 0.09375-0.38672 0.16797-0.59375 0.21875-0.19922 0.050781-0.40625 0.078125-0.625 0.078125-0.66797 0-1.1992-0.17969-1.5938-0.54688-0.38672-0.375-0.57812-0.87891-0.57812-1.5156 0-0.64453 0.19141-1.1484 0.57812-1.5156 0.39453-0.375 0.92578-0.5625 1.5938-0.5625 0.21875 0 0.42578 0.027344 0.625 0.078125 0.20703 0.054687 0.40625 0.125 0.59375 0.21875v0.82812c-0.1875-0.125-0.375-0.21875-0.5625-0.28125-0.17969-0.0625-0.37109-0.09375-0.57812-0.09375-0.36719 0-0.65625 0.12109-0.875 0.35938-0.21094 0.23047-0.3125 0.55469-0.3125 0.96875 0 0.40625 0.10156 0.73047 0.3125 0.96875 0.21875 0.23047 0.50781 0.34375 0.875 0.34375 0.20703 0 0.39844-0.023437 0.57812-0.078125 0.1875-0.0625 0.375-0.16016 0.5625-0.29688z"/>
  </symbol>
  <symbol id="c" overflow="visible">
   <path d="m2.6875-2.1719c-0.085938-0.039063-0.16797-0.070313-0.25-0.09375-0.085938-0.019531-0.16797-0.03125-0.25-0.03125-0.25 0-0.44531 0.085937-0.57812 0.25-0.125 0.15625-0.1875 0.38281-0.1875 0.67188v1.375h-0.96875v-2.9844h0.96875v0.48438c0.11328-0.19531 0.25-0.33594 0.40625-0.42188 0.16406-0.09375 0.35938-0.14062 0.57812-0.14062h0.10938c0.039063 0 0.09375 0.007812 0.15625 0.015625z"/>
  </symbol>
  <symbol id="a" overflow="visible">
   <path d="m3.4375-1.5v0.26562h-2.2344c0.03125 0.23047 0.11328 0.40234 0.25 0.51562 0.13281 0.10547 0.32812 0.15625 0.57812 0.15625 0.20703 0 0.41406-0.023438 0.625-0.078125 0.20703-0.0625 0.42188-0.15625 0.64062-0.28125v0.73438c-0.21875 0.09375-0.44531 0.16406-0.67188 0.20312-0.23047 0.039062-0.45312 0.0625-0.67188 0.0625-0.54297 0-0.96484-0.13281-1.2656-0.40625-0.30469-0.28125-0.45312-0.67188-0.45312-1.1719 0-0.47656 0.14453-0.85938 0.4375-1.1406 0.30078-0.28125 0.70703-0.42188 1.2188-0.42188 0.46875 0 0.84375 0.14062 1.125 0.42188s0.42188 0.66406 0.42188 1.1406zm-0.96875-0.32812c0-0.17578-0.058594-0.31641-0.17188-0.42188-0.10547-0.11328-0.24219-0.17188-0.40625-0.17188-0.1875 0-0.33984 0.054687-0.45312 0.15625-0.11719 0.10547-0.1875 0.25-0.21875 0.4375z"/>
  </symbol>
  <symbol id="f" overflow="visible">
   <path d="m1.7969-1.3438c-0.19922 0-0.35156 0.039062-0.45312 0.10938-0.09375 0.0625-0.14062 0.16406-0.14062 0.29688 0 0.11719 0.035156 0.21094 0.10938 0.28125 0.082031 0.0625 0.19531 0.09375 0.34375 0.09375 0.17578 0 0.32812-0.0625 0.45312-0.1875s0.1875-0.28516 0.1875-0.48438v-0.10938zm1.4688-0.35938v1.7031h-0.96875v-0.4375c-0.125 0.17969-0.27344 0.30859-0.4375 0.39062-0.15625 0.082031-0.35156 0.125-0.57812 0.125-0.3125 0-0.57031-0.085938-0.76562-0.26562-0.1875-0.1875-0.28125-0.42188-0.28125-0.70312 0-0.35156 0.11719-0.61328 0.35938-0.78125 0.23828-0.16406 0.61719-0.25 1.1406-0.25h0.5625v-0.0625c0-0.15625-0.0625-0.26562-0.1875-0.32812-0.11719-0.070312-0.29688-0.10938-0.54688-0.10938-0.21094 0-0.40234 0.023437-0.57812 0.0625-0.17969 0.042969-0.33984 0.10156-0.48438 0.17188v-0.71875c0.19531-0.050781 0.39844-0.085938 0.60938-0.10938 0.20703-0.03125 0.41406-0.046875 0.625-0.046875 0.53906 0 0.92969 0.10938 1.1719 0.32812 0.23828 0.21094 0.35938 0.55469 0.35938 1.0312z"/>
  </symbol>
  <symbol id="b" overflow="visible">
   <path d="m1.5-3.8438v0.85938h0.98438v0.67188h-0.98438v1.2812c0 0.13672 0.023438 0.23047 0.078125 0.28125 0.0625 0.042969 0.17578 0.0625 0.34375 0.0625h0.48438v0.6875h-0.8125c-0.38672 0-0.65625-0.078125-0.8125-0.23438s-0.23438-0.42188-0.23438-0.79688v-1.2812h-0.46875v-0.67188h0.46875v-0.85938z"/>
  </symbol>
  <symbol id="k" overflow="visible">
   <path d="m2.5-2.5469v-1.6094h0.95312v4.1562h-0.95312v-0.4375c-0.13672 0.17969-0.28125 0.30859-0.4375 0.39062-0.15625 0.082031-0.33984 0.125-0.54688 0.125-0.375 0-0.68359-0.14453-0.92188-0.4375-0.23047-0.28906-0.34375-0.67188-0.34375-1.1406 0-0.45703 0.11328-0.83203 0.34375-1.125 0.23828-0.28906 0.54688-0.4375 0.92188-0.4375 0.19531 0 0.375 0.042969 0.53125 0.125 0.16406 0.085938 0.31641 0.21484 0.45312 0.39062zm-0.64062 1.9375c0.20703 0 0.36328-0.070313 0.46875-0.21875 0.11328-0.15625 0.17188-0.37891 0.17188-0.67188 0-0.28125-0.058594-0.49219-0.17188-0.64062-0.10547-0.15625-0.26172-0.23438-0.46875-0.23438-0.19922 0-0.35547 0.078125-0.46875 0.23438-0.10547 0.14844-0.15625 0.35938-0.15625 0.64062 0 0.29297 0.050781 0.51562 0.15625 0.67188 0.11328 0.14844 0.26953 0.21875 0.46875 0.21875z"/>
  </symbol>
  <symbol id="j" overflow="visible">
   <path d="m2.0469-0.60938c0.20703 0 0.36328-0.070313 0.46875-0.21875 0.11328-0.15625 0.17188-0.37891 0.17188-0.67188 0-0.28125-0.058594-0.49219-0.17188-0.64062-0.10547-0.15625-0.26172-0.23438-0.46875-0.23438-0.19922 0-0.35547 0.078125-0.46875 0.23438-0.10547 0.14844-0.15625 0.35938-0.15625 0.64062 0 0.29297 0.050781 0.51562 0.15625 0.67188 0.11328 0.14844 0.26953 0.21875 0.46875 0.21875zm-0.625-1.9375c0.125-0.17578 0.26562-0.30469 0.42188-0.39062 0.16406-0.082031 0.35156-0.125 0.5625-0.125 0.36328 0 0.66406 0.14844 0.90625 0.4375 0.23828 0.29297 0.35938 0.66797 0.35938 1.125 0 0.46875-0.12109 0.85156-0.35938 1.1406-0.24219 0.29297-0.54297 0.4375-0.90625 0.4375-0.21094 0-0.39844-0.042969-0.5625-0.125-0.15625-0.082031-0.29688-0.21094-0.42188-0.39062v0.4375h-0.96875v-4.1562h0.96875z"/>
  </symbol>
  <symbol id="i" overflow="visible">
   <path d="m0.0625-2.9844h0.95312l0.8125 2.0156 0.6875-2.0156h0.95312l-1.2656 3.2656c-0.125 0.33203-0.27344 0.56641-0.4375 0.70312-0.16797 0.13281-0.39062 0.20312-0.67188 0.20312h-0.54688v-0.64062h0.29688c0.16406 0 0.28516-0.027344 0.35938-0.078125 0.070313-0.054688 0.12891-0.14062 0.17188-0.26562l0.03125-0.09375z"/>
  </symbol>
  <symbol id="h" overflow="visible">
   <path d="m3.2812-3.8594v0.84375c-0.21875-0.10156-0.43359-0.17578-0.64062-0.21875-0.21094-0.050781-0.40625-0.078125-0.59375-0.078125-0.25 0-0.43359 0.039062-0.54688 0.10938-0.11719 0.0625-0.17188 0.16797-0.17188 0.3125 0 0.10547 0.035156 0.1875 0.10938 0.25 0.082031 0.054687 0.22656 0.10156 0.4375 0.14062l0.4375 0.09375c0.44531 0.09375 0.75781 0.23047 0.9375 0.40625 0.1875 0.17969 0.28125 0.4375 0.28125 0.78125 0 0.4375-0.13281 0.76562-0.39062 0.98438-0.26172 0.21094-0.65625 0.3125-1.1875 0.3125-0.25 0-0.50781-0.027344-0.76562-0.078125-0.25-0.039062-0.50781-0.10938-0.76562-0.20312v-0.875c0.25781 0.13672 0.50391 0.24219 0.73438 0.3125 0.23828 0.0625 0.47266 0.09375 0.70312 0.09375 0.21875 0 0.38281-0.035156 0.5-0.10938 0.125-0.070312 0.1875-0.17578 0.1875-0.3125 0-0.125-0.042969-0.21875-0.125-0.28125-0.085937-0.070312-0.24609-0.13281-0.48438-0.1875l-0.39062-0.09375c-0.40625-0.082031-0.70312-0.21875-0.89062-0.40625-0.17969-0.1875-0.26562-0.44141-0.26562-0.76562 0-0.39453 0.125-0.69531 0.375-0.90625 0.25781-0.21875 0.62891-0.32812 1.1094-0.32812 0.22656 0 0.45703 0.023438 0.6875 0.0625 0.22656 0.03125 0.46875 0.078125 0.71875 0.14062z"/>
  </symbol>
  <symbol id="e" overflow="visible">
   <path d="m3.4688-1.8281v1.8281h-0.96875v-1.3906c0-0.25781-0.007812-0.4375-0.015625-0.53125-0.011719-0.10156-0.03125-0.17578-0.0625-0.21875-0.03125-0.0625-0.085937-0.10938-0.15625-0.14062-0.0625-0.039062-0.13281-0.0625-0.20312-0.0625-0.21094 0-0.37109 0.078125-0.48438 0.23438-0.10547 0.15625-0.15625 0.37109-0.15625 0.64062v1.4688h-0.96875v-4.1562h0.96875v1.6094c0.13281-0.17578 0.28516-0.30469 0.45312-0.39062 0.16406-0.082031 0.34375-0.125 0.53125-0.125 0.34375 0 0.60156 0.10938 0.78125 0.32812 0.1875 0.21094 0.28125 0.51172 0.28125 0.90625z"/>
  </symbol>
  <symbol id="v" overflow="visible">
   <path d="m0.45312-4.1562h0.96875v2.2656l1.0938-1.0938h1.1094l-1.4531 1.3594 1.5625 1.625h-1.1562l-1.1562-1.25v1.25h-0.96875z"/>
  </symbol>
  <symbol id="u" overflow="visible">
   <path d="m0.45312-4.1562h0.96875v4.1562h-0.96875z"/>
  </symbol>
  <symbol id="t" overflow="visible">
   <path d="m0.5625-1.0312h0.95312v1.0312h-0.95312z"/>
  </symbol>
  <symbol id="s" overflow="visible">
   <path d="m2.4219-4.1562v0.625h-0.51562c-0.13672 0-0.23438 0.027344-0.29688 0.078125-0.054687 0.054687-0.078125 0.13672-0.078125 0.25v0.21875h0.82812v0.67188h-0.82812v2.3125h-0.95312v-2.3125h-0.46875v-0.67188h0.46875v-0.21875c0-0.32031 0.085937-0.5625 0.26562-0.71875 0.1875-0.15625 0.47266-0.23438 0.85938-0.23438z"/>
  </symbol>
  <symbol id="d" overflow="visible">
   <path d="m1.875-2.375c-0.21094 0-0.37109 0.078125-0.48438 0.23438-0.10547 0.14844-0.15625 0.35938-0.15625 0.64062 0 0.29297 0.050781 0.51562 0.15625 0.67188 0.11328 0.14844 0.27344 0.21875 0.48438 0.21875 0.20703 0 0.36719-0.070313 0.48438-0.21875 0.11328-0.15625 0.17188-0.37891 0.17188-0.67188 0-0.28125-0.058594-0.49219-0.17188-0.64062-0.11719-0.15625-0.27734-0.23438-0.48438-0.23438zm0-0.6875c0.51953 0 0.92188 0.14062 1.2031 0.42188 0.28906 0.27344 0.4375 0.65234 0.4375 1.1406 0 0.5-0.14844 0.89062-0.4375 1.1719-0.28125 0.27344-0.68359 0.40625-1.2031 0.40625-0.51172 0-0.91406-0.13281-1.2031-0.40625-0.29297-0.28125-0.4375-0.67188-0.4375-1.1719 0-0.48828 0.14453-0.86719 0.4375-1.1406 0.28906-0.28125 0.69141-0.42188 1.2031-0.42188z"/>
  </symbol>
  <symbol id="r" overflow="visible">
   <path d="m3.2344-2.5c0.11328-0.17578 0.25391-0.3125 0.42188-0.40625 0.16406-0.10156 0.35156-0.15625 0.5625-0.15625 0.33203 0 0.58594 0.10938 0.76562 0.32812 0.1875 0.21094 0.28125 0.51172 0.28125 0.90625v1.8281h-0.96875v-1.5625c0.007813-0.019531 0.015625-0.039062 0.015625-0.0625v-0.10938c0-0.21875-0.03125-0.375-0.09375-0.46875s-0.16406-0.14062-0.29688-0.14062c-0.1875 0-0.33594 0.078125-0.4375 0.23438-0.09375 0.14844-0.14062 0.35938-0.14062 0.64062v1.4688h-0.96875v-1.5625c0-0.33203-0.03125-0.54688-0.09375-0.64062-0.054688-0.09375-0.15234-0.14062-0.29688-0.14062-0.17969 0-0.32031 0.078125-0.42188 0.23438-0.09375 0.14844-0.14062 0.35938-0.14062 0.64062v1.4688h-0.96875v-2.9844h0.96875v0.4375c0.11328-0.17578 0.24219-0.30469 0.39062-0.39062 0.15625-0.082031 0.32812-0.125 0.51562-0.125 0.20703 0 0.39062 0.054688 0.54688 0.15625 0.15625 0.09375 0.27344 0.23047 0.35938 0.40625z"/>
  </symbol>
  <symbol id="q" overflow="visible">
   <path d="m0.5-3.9844h1.1562l1.4375 2.7344v-2.7344h0.98438v3.9844h-1.1562l-1.4375-2.7344v2.7344h-0.98438z"/>
  </symbol>
  <symbol id="p" overflow="visible">
   <path d="m0.42188-1.1719v-1.8125h0.96875v0.29688 0.60938 0.48438c0 0.24219 0.003906 0.41797 0.015625 0.53125 0.007812 0.10547 0.03125 0.17969 0.0625 0.21875 0.039062 0.0625 0.09375 0.11719 0.15625 0.15625 0.0625 0.03125 0.13281 0.046875 0.21875 0.046875 0.19531 0 0.35156-0.078125 0.46875-0.23438 0.11328-0.15625 0.17188-0.36719 0.17188-0.64062v-1.4688h0.95312v2.9844h-0.95312v-0.4375c-0.14844 0.17969-0.30469 0.30859-0.46875 0.39062-0.15625 0.082031-0.33594 0.125-0.53125 0.125-0.34375 0-0.60938-0.10156-0.79688-0.3125-0.17969-0.21875-0.26562-0.53125-0.26562-0.9375z"/>
  </symbol>
  <symbol id="o" overflow="visible">
   <path d="m3.4688-1.8281v1.8281h-0.96875v-1.3906c0-0.25781-0.007812-0.4375-0.015625-0.53125-0.011719-0.10156-0.03125-0.17578-0.0625-0.21875-0.03125-0.0625-0.085937-0.10938-0.15625-0.14062-0.0625-0.039062-0.13281-0.0625-0.20312-0.0625-0.21094 0-0.37109 0.078125-0.48438 0.23438-0.10547 0.15625-0.15625 0.37109-0.15625 0.64062v1.4688h-0.96875v-2.9844h0.96875v0.4375c0.13281-0.17578 0.28516-0.30469 0.45312-0.39062 0.16406-0.082031 0.34375-0.125 0.53125-0.125 0.34375 0 0.60156 0.10938 0.78125 0.32812 0.1875 0.21094 0.28125 0.51172 0.28125 0.90625z"/>
  </symbol>
  <symbol id="n" overflow="visible">
   <path d="m0.5-3.9844h1.7031c0.50781 0 0.89844 0.11719 1.1719 0.34375 0.26953 0.21875 0.40625 0.53906 0.40625 0.95312 0 0.41797-0.13672 0.74219-0.40625 0.96875-0.27344 0.21875-0.66406 0.32812-1.1719 0.32812h-0.67188v1.3906h-1.0312zm1.0312 0.75v1.1094h0.5625c0.19531 0 0.34766-0.046875 0.45312-0.14062 0.11328-0.10156 0.17188-0.24219 0.17188-0.42188 0-0.17578-0.058594-0.3125-0.17188-0.40625-0.10547-0.09375-0.25781-0.14062-0.45312-0.14062z"/>
  </symbol>
  <symbol id="m" overflow="visible">
   <path d="m0.45312-2.9844h0.96875v2.9375c0 0.39453-0.10156 0.69531-0.29688 0.90625-0.1875 0.21875-0.46484 0.32812-0.82812 0.32812h-0.48438v-0.64062h0.17188c0.17578 0 0.29688-0.042969 0.35938-0.125 0.070312-0.074219 0.10938-0.23047 0.10938-0.46875zm0-1.1719h0.96875v0.78125h-0.96875z"/>
  </symbol>
  <symbol id="l" overflow="visible">
   <path d="m2.875-2.8906v0.76562c-0.125-0.082031-0.25781-0.14453-0.39062-0.1875-0.13672-0.039062-0.27344-0.0625-0.40625-0.0625-0.27344 0-0.48047 0.078125-0.625 0.23438-0.14844 0.15625-0.21875 0.37109-0.21875 0.64062 0 0.28125 0.070313 0.5 0.21875 0.65625 0.14453 0.15625 0.35156 0.23438 0.625 0.23438 0.14453 0 0.28516-0.019531 0.42188-0.0625 0.13281-0.039063 0.25781-0.10938 0.375-0.20312v0.78125c-0.14844 0.0625-0.29688 0.10156-0.45312 0.125-0.15625 0.03125-0.3125 0.046875-0.46875 0.046875-0.54297 0-0.96484-0.13281-1.2656-0.40625-0.30469-0.28125-0.45312-0.67188-0.45312-1.1719 0-0.48828 0.14844-0.86719 0.45312-1.1406 0.30078-0.28125 0.72266-0.42188 1.2656-0.42188 0.15625 0 0.3125 0.015625 0.46875 0.046875 0.15625 0.023437 0.30469 0.0625 0.45312 0.125z"/>
  </symbol>
 </defs>
 <g>
  <path d="m251.64 417.7c-6.3125 5.6445-9.2656 13.945-7.7773 22.914 1.5156 8.2422 5.8555 15.844 12.559 21.957 4.8555 4.4453 13.125 11.398 24.934 19.289 1.0469 0.69922 2.2539 1.0469 3.4531 1.0469s2.4062-0.34766 3.4531-1.0469c11.805-7.8906 20.078-14.84 24.934-19.289 6.6992-6.1133 11.039-13.719 12.68-22.672 1.3672-8.2539-1.5859-16.555-7.8984-22.199-6.3594-5.6914-15-7.6797-23.09-5.4023-4.3008 1.2148-7.625 3.293-10.074 5.3711-2.4492-2.0781-5.7734-4.1602-10.074-5.3711-8.1211-2.2773-16.746-0.28906-23.098 5.4023zm27.754 12.383c2.2148 3.8867 8.6055 3.8867 10.82 0 0.023438-0.046876 2.6406-4.293 8.0508-5.8281 3.9766-1.1367 8.2461-0.10547 11.418 2.7148 3.1719 2.8359 4.5977 6.7969 3.832 11.398-1.0156 5.5547-4.0352 10.758-8.7188 15.039-4.0508 3.7031-10.676 9.3008-19.992 15.766-9.3242-6.4648-15.941-12.062-19.992-15.766-4.6797-4.2812-7.6992-9.4844-8.8086-15.539-0.67578-4.0977 0.75-8.0586 3.9219-10.895 2.3125-2.0625 5.2109-3.1719 8.1641-3.1719 1.0938 0 2.1836 0.15234 3.2539 0.45312 5.418 1.5352 7.9844 5.7227 8.0508 5.8281z"/>
  <path d="m336.99 218.61c-6.1523-3.7773-12.852-4.1875-18.871-1.2305-4.3008 2.125-7.4648 5.4805-9.7344 8.8164-2.9062-3.2305-6.7773-6.4805-11.633-8.3906-7.4219-2.8984-15.289-1.5938-21.594 3.625-10.234 8.4531-14.953 25.617-11.504 43.902 2.793 13.977 9.0078 27.148 17.496 37.09 6.6094 7.7383 17.664 19.668 32.816 32.473 1.1328 0.95703 2.5508 1.4727 4.0156 1.4727 0.26562 0 0.53125-0.03125 0.78906-0.0625 1.7305-0.21094 3.293-1.1523 4.293-2.582 11.762-16.707 19.461-30.578 23.848-39.258 5.418-10.742 8.2773-23.277 8.2617-37.406-0.17969-16.445-7.4844-31.91-18.184-38.449zm-1.168 70.242c-3.7031 7.3281-9.8633 18.5-19.016 32.051-11.867-10.516-20.668-20.078-26.199-26.555-7.1328-8.3633-12.375-19.531-14.977-32.52-2.7539-14.672 1.9258-26.254 7.4414-30.82 1.875-1.5469 3.7852-2.3086 5.7891-2.3086 1.0859 0 2.1914 0.21094 3.332 0.66797 5.9648 2.3516 10.348 9.4102 11.539 11.926 1.1016 2.3516 3.6875 3.8242 6.1758 3.5352 2.5938-0.22656 4.7812-2.0469 5.4648-4.5664 0.66016-2.457 3.4375-9.3633 8.2617-11.746 0.78906-0.39453 3.1875-1.5781 6.8594 0.68359 5.9727 3.6562 12.102 14.461 12.262 28.984 0.007813 11.062-2.3906 21.672-6.9336 30.668z"/>
  <path d="m555.88 247.08s-34.492-20.121-35.191-20.531c-0.17578-0.10156-0.37109-0.10938-0.55078-0.19141-2.832-1.4297-6.2852-0.55469-8 2.1484-7.3516 11.652-19.949 18.605-33.695 18.605-13.742 0-26.336-6.9492-33.688-18.605-1.668-2.625-4.9883-3.4883-7.7852-2.2266-0.25391 0.10547-0.52734 0.125-0.77344 0.26953-0.45312 0.26562-14.977 8.7422-25.227 14.723l-14.312-115.66c-0.37109-3.0195-2.875-5.3203-5.918-5.4492l-51.348-2.0703-1.7773-36.004c-2.4297-22.953-20.902-40.594-43.938-41.941-2.7812-0.14844-5.5273 0.09375-8.2539 0.42187-5.8828-3.1719-12.43-5.2734-19.508-5.6953-13.492-0.83594-26.707 4.2734-36.207 13.93-9.4922 9.6367-14.363 22.898-13.383 35.746l-0.87109 28.551-33.992-1.3711h-0.015626l-0.26562-0.011719c-0.19922 0.003906-0.35938 0.085938-0.55078 0.097656-0.625 0.03125-1.2383 0.10547-1.8359 0.32812-0.31641 0.11328-0.58594 0.32422-0.87891 0.48828-0.32812 0.1875-0.6875 0.28906-0.98437 0.54297l-15.219 12.793-17.777-4.7891c-1.7891-0.48438-3.7031-0.13672-5.2109 0.93359-1.5117 1.0703-2.4648 2.7617-2.6016 4.6133l-21.98 298.51c0 0.03125-0.007813 0.074219-0.007813 0.10547v0.015625 0.015625 0.015625c-0.074218 1.457 0.35547 2.9297 1.3203 4.1445 0.082031 0.10547 0.16797 0.21094 0.25 0.30469h0.007813s0 0.015624 0.007812 0.015624c0.66016 0.72656 1.457 1.2734 2.3203 1.625l82.211 34.508c0.78125 0.31641 1.5938 0.48438 2.4062 0.48438 0.5 0 1.0078-0.058594 1.5078-0.19531l15.488-3.8789v36.824c0 0.95312 0.25391 1.8359 0.64062 2.6445 3.2891 15.945 34.801 23.367 64.527 23.367 29.727 0 61.238-7.4219 64.527-23.367 0.38672-0.80859 0.64062-1.6875 0.64062-2.6445v-30.793c1.9023-2.2891 4.2734-4.9844 7.125-8.207 9.9805-11.25 23.34-26.438 30.145-39.723l25.379-6.3438c-0.75781 26.285-2.8125 54.289-4.9766 77.828-0.10547 1.125 0.10547 2.2773 0.60547 3.293 1.6172 3.293 8.7422 11.398 40.129 15.828 9.9688 1.4102 20.016 2.1094 30.062 2.1094 10.039 0 20.082-0.69922 30.047-2.1094 31.383-4.4297 38.523-12.535 40.129-15.812 0.50781-1.0312 0.72266-2.1719 0.61328-3.3086-3.9648-43.203-7.6992-101.56-3.3438-136.22 3.5156 0.625 6.9062 1.0117 10.008 1.0117 15.355 0 25.258-6.4023 25.805-6.7695 1.7383-1.1367 2.7773-3.0938 2.7773-5.1758v-20.547c0-6.2656 0.33984-12.445 1.125-19.531 2.2656-23.18-9.4062-45.809-29.738-57.672zm-226.99-89.578c-1.0664 1.3906-1.8086 3.0508-1.8086 4.9375 0 4.5664 3.7031 8.2695 8.2734 8.2695 4.5703 0 8.2695-3.7031 8.2695-8.2695 0-2.2266-0.90234-4.2266-2.332-5.7148l-0.44922-9.1172c6.0742 2.2539 10.461 7.9805 10.461 14.824 0 8.8008-7.1562 15.949-15.949 15.949s-15.949-7.1484-15.949-15.949c0-6.2773 3.7344-11.598 9.0273-14.195zm-3.6719-74.457 1.7031 34.547-15.828-0.64062-1.2461-40.137c-0.89453-8.4648-4-16.184-8.6875-22.652 12.926 3.9961 22.598 15.156 24.059 28.883zm-58.887-20.266c4.6172-4.6719 10.512-7.707 16.777-9.1797 7.8438 5.5195 13.277 14.133 14.336 24.059l1.1914 38.793-41.812-1.6836-0.33594-25.211c-0.72656-9.9258 2.8633-19.684 9.8438-26.777zm-8.9414 94.242-0.125-9.3086c5.8125 2.3828 9.9375 8.0625 9.9375 14.715 0 8.8008-7.1641 15.949-15.957 15.949-8.793 0-15.949-7.1484-15.949-15.949 0-6.5 3.9453-12.066 9.543-14.543l0.125 9.3477c-1.1836 1.4336-1.9844 3.1992-1.9844 5.1992 0 4.5664 3.7031 8.2695 8.2695 8.2695 4.5703 0 8.2734-3.7031 8.2734-8.2695 0-2.0898-0.84766-3.9492-2.1328-5.4102zm-28.66-72.738c-0.73438-9.918 2.8516-19.676 9.832-26.762 6.9805-7.0859 16.77-10.715 26.617-10.234 0.24219 0.015625 0.46094 0.085938 0.70312 0.10547-3.0078 1.8945-5.8516 4.082-8.3945 6.6641-9.5078 9.6445-14.387 22.914-13.406 36.039l0.31641 24.172-16.531-0.66797zm-80.777 50.852 9.0469 2.4453-0.25781 250.5-29.16 23.711zm-15.66 288.84 28.906-23.492 26.914 46.922zm36.879-34.594 0.26172-253.66 6.0625-5.1016 19.25 303.35zm168.38 109.83c0 3.9453-18.484 13.566-52.742 13.566-34.258 0-52.742-9.6211-52.742-13.566l0.003906-116.71c17.109 6.2031 45.09 6.6562 52.625 6.6562 7.5703 0 35.766-0.45312 52.855-6.7305zm-104.96-129.76c6.2227-3.0664 24.137-7.2539 52.102-7.2539 27.969 0 45.883 4.1875 52.102 7.2539-6.2227 3.0781-24.137 7.2695-52.102 7.2695s-45.879-4.1875-52.102-7.2695zm117.39 80.043v-19.684l20.121-5.0273c-5.957 8.4805-13.527 17.258-20.121 24.711zm28.125-39.52-28.125 7.0312v-6.3477c0.48828-1.2852 8.7695-22.492 20.82-18.883 0.0625 0.015625 5.8359 2.2461 7.9609 7.5117 1.1797 2.9219 0.69531 6.6211-0.65625 10.688zm13.723-3.4297c0.4375-4.2852-0.0625-8.3398-1.6172-12.098-4.2188-10.211-14.082-13.977-15.531-14.477-10.105-2.9414-18.398 1.25-24.695 7.6484v-14.207c0.60156-1.2305 1.0156-2.5273 1.0156-3.9609 0-18.742-55.23-19.699-66.297-19.699-11.07 0-66.297 0.95703-66.297 19.699 0 1.582 0.51562 2.9961 1.2461 4.3359v75.793l-11.27 2.8164-20.812-327.98 57.004 2.2969 0.10938 8.1836c-12.469 2.9844-21.797 14.16-21.797 27.531 0 15.645 12.73 28.395 28.379 28.395 15.652 0 28.387-12.746 28.387-28.395 0-13.641-9.6836-25.055-22.539-27.758l-0.097656-7.4531 70.543 2.8438 0.25391 5.1445c-11.961 3.3359-20.812 14.215-20.812 27.223 0 15.645 12.73 28.395 28.379 28.395 15.645 0 28.379-12.746 28.379-28.395 0-13.988-10.195-25.57-23.531-27.887l-0.19531-3.9805 44.961 1.8125 14.344 115.87c-19.238 12.125-30.234 34.047-27.91 57.652 0.66016 5.8867 1 12.062 1 18.379v20.547c0 2.0781 1.0391 4.0352 2.7773 5.1758 0.54688 0.36328 10.449 6.7695 25.805 6.7695 3.1016 0 6.4922-0.38672 10.008-1.0078 1.5938 12.664 2.1289 28.414 1.9414 45.512zm181.32-102.04c-0.72266 6.4023-1.0859 13.051-1.0859 19.773v16.812c-4.2383 1.875-13.211 4.3555-24.793 2.1094l0.125-1.4102c0.76562-8.6055 4.7734-28.938 12.246-46.859 1.3203-3.1719-0.17578-6.8125-3.3477-8.1328-3.1719-1.3828-6.8047 0.16797-8.125 3.3398-8.0742 19.348-12.293 40.836-13.156 50.562l-0.17578 1.9414c-0.45312 5.1914-0.45312 5.1914-0.78125 7.5586l-0.34766 2.5938c-3.7617 28.18-2.793 74.387 2.8906 137.39-2.7031 1.8672-10.469 5.8555-29.836 8.5898-18.793 2.6719-37.84 2.6719-56.633 0-19.836-2.793-27.496-6.9219-29.844-8.4375 5.6914-63.051 6.668-109.32 2.8984-137.55l-0.33203-2.4883c-0.33203-2.3984-0.32422-2.3984-0.75781-7.2383l-0.21094-2.3672c-0.85938-9.6953-5.0703-31.156-13.148-50.562-1.3281-3.1562-4.9766-4.6875-8.125-3.3398-3.1719 1.3203-4.6641 4.9609-3.3477 8.1328 7.4805 17.969 11.48 38.27 12.238 46.859l0.125 1.4102c-11.602 2.2461-20.547-0.23437-24.793-2.125v-16.801c0-6.7695-0.36328-13.414-1.1836-20.742-1.7969-18.348 7.4727-36.281 23.637-45.707 17.543-10.234 26.348-15.371 30.82-17.98 9.875 12.242 24.371 19.711 40.344 19.711 15.98 0 30.477-7.4648 40.348-19.707 4.4727 2.6094 13.281 7.75 30.82 17.977 16.156 9.4258 25.426 27.359 23.531 46.68z"/>
  <path d="m488.23 320.54c-4.6445 1.4883-8.1953 4.0078-10.773 6.5117-2.5859-2.5352-6.1289-5.0977-10.734-6.6328-8.0195-2.7305-16.207-1.0156-22.504 4.6133-7.207 6.4336-10.332 16.723-7.9961 27.664 2.0352 8.8633 6.6562 17.059 13.383 23.688 7.2305 7.0859 15.539 14.098 24.711 20.805 1.0938 0.80469 2.3828 1.2148 3.6719 1.2148 1.1914 0 2.3828-0.34766 3.4219-1.0312 11.57-7.6328 20.008-14.719 25.047-19.332 7.1016-6.4805 11.926-14.766 14.121-24.766 2.0938-10.258-1.2695-20.805-8.7617-27.527-6.5742-5.8867-15.383-7.8594-23.586-5.207zm20.031 30.867c-1.4727 6.6758-4.9922 12.719-10.191 17.465-4.1719 3.8086-10.859 9.4531-19.902 15.691-7.3125-5.5547-13.977-11.277-19.848-17.043-5.0312-4.9609-8.4844-11.047-10.121-18.211-1.2305-5.7969 0.41016-11.547 4.293-15.008 1.2695-1.125 3.5977-2.7031 6.8047-2.7031 1.0625 0 2.2227 0.18359 3.4766 0.58984 6.0625 2.0352 9.1133 7.7695 9.1211 7.7852 1.0469 2.0938 3.2031 3.3984 5.5469 3.4141h0.03125c2.3281 0 4.4844-1.3359 5.5469-3.4141 0.03125-0.058594 2.9531-5.6602 9.0078-7.6016 5.5078-1.7617 9.5586 0.89453 11.488 2.625 4.2227 3.7852 6.0898 9.8398 4.7461 16.41z"/>
  <use x="70" y="576.40625" xlink:href="#g"/>
  <use x="74.011719" y="576.40625" xlink:href="#c"/>
  <use x="76.710938" y="576.40625" xlink:href="#a"/>
  <use x="80.417969" y="576.40625" xlink:href="#f"/>
  <use x="84.109375" y="576.40625" xlink:href="#b"/>
  <use x="86.722656" y="576.40625" xlink:href="#a"/>
  <use x="90.433594" y="576.40625" xlink:href="#k"/>
  <use x="96.25" y="576.40625" xlink:href="#j"/>
  <use x="100.167969" y="576.40625" xlink:href="#i"/>
  <use x="105.636719" y="576.40625" xlink:href="#h"/>
  <use x="109.574219" y="576.40625" xlink:href="#e"/>
  <use x="113.46875" y="576.40625" xlink:href="#f"/>
  <use x="117.15625" y="576.40625" xlink:href="#v"/>
  <use x="120.792969" y="576.40625" xlink:href="#a"/>
  <use x="124.503906" y="576.40625" xlink:href="#a"/>
  <use x="128.210938" y="576.40625" xlink:href="#u"/>
  <use x="131.992188" y="576.40625" xlink:href="#g"/>
  <use x="136.003906" y="576.40625" xlink:href="#e"/>
  <use x="139.898438" y="576.40625" xlink:href="#t"/>
  <use x="70" y="581.875" xlink:href="#s"/>
  <use x="72.378906" y="581.875" xlink:href="#c"/>
  <use x="75.078125" y="581.875" xlink:href="#d"/>
  <use x="78.832031" y="581.875" xlink:href="#r"/>
  <use x="86.4375" y="581.875" xlink:href="#b"/>
  <use x="89.050781" y="581.875" xlink:href="#e"/>
  <use x="92.941406" y="581.875" xlink:href="#a"/>
  <use x="98.554688" y="581.875" xlink:href="#q"/>
  <use x="103.132812" y="581.875" xlink:href="#d"/>
  <use x="106.890625" y="581.875" xlink:href="#p"/>
  <use x="110.785156" y="581.875" xlink:href="#o"/>
  <use x="116.582031" y="581.875" xlink:href="#n"/>
  <use x="120.589844" y="581.875" xlink:href="#c"/>
  <use x="123.285156" y="581.875" xlink:href="#d"/>
  <use x="127.042969" y="581.875" xlink:href="#m"/>
  <use x="128.917969" y="581.875" xlink:href="#a"/>
  <use x="132.625" y="581.875" xlink:href="#l"/>
  <use x="135.867188" y="581.875" xlink:href="#b"/>
 </g>
</svg>
